# xmcd
#
# Track frame offsets: 
#        150
#        12635
#        35935
#        56428
#        71703
#        93614
#        106437
#        128954
#        145102
#        171886
#        186201
#
# Disc length: 2746 seconds
#
# Revision: 0
# Processed by: cddbd v1.5.2PL0 Copyright (c) Steve Scherf et al.
# Submitted via: ExactAudioCopyFreeDBPlugin 1.0
#
DISCID=a60ab80b
DTITLE=Bullington, Ben - Lazy Moon
DYEAR=2012
DGENRE=Americana
TTITLE0=Lazy Moon
TTITLE1=Candle in the Window
TTITLE2=Montana Girl
TTITLE3=I Didn't See You Maggie
TTITLE4=Lone Pine
TTITLE5=Cup of Strong Black Coffee
TTITLE6=Sage after Rain
TTITLE7=I Despise Flies
TTITLE8=Green Heart
TTITLE9=Buckles and Leather
TTITLE10=Livingston
EXTD=
EXTT0=
EXTT1=
EXTT2=
EXTT3=
EXTT4=
EXTT5=
EXTT6=
EXTT7=
EXTT8=
EXTT9=
EXTT10=
PLAYORDER=
